<svg id="Capa_1" enable-background="new 0 0 512 512" height="512" viewBox="0 0 512 512" width="512" xmlns="http://www.w3.org/2000/svg"><g><path d="m444.699 67h-188.699-189.699c-30.601 11.401-49.201 20.7-66.301 30.301v167.699l25.58 89.985 230.42-.136 230.105-.135 25.895-90.015v-167.398c-16.5-9.3-36.7-18.9-67.301-30.301z" fill="#fabe2c"/><g><path d="m512 264.699v-167.398c-16.5-9.3-36.7-18.9-67.301-30.3h-188.699v287.849l230.105-.135z" fill="#ff9100"/></g><g><path d="m256 0h-196v391h196 195v-391z" fill="#e6f2ff"/></g><g><path d="m256 0h195v391h-195z" fill="#cdf"/></g><g><path d="m196 187.211-30-30-19.395 19.394-21.21-21.21 40.605-40.606 30 30 49.395-49.394 21.21 21.21z" fill="#f66"/></g><g><path d="m301 91h90v30h-90z" fill="#b3bfff"/></g><g><path d="m301 151h90v30h-90z" fill="#b3bfff"/></g><g><path d="m301 211h90v30h-90z" fill="#b3bfff"/></g><path d="m256 331c-88.53 0-184.532-26.693-256-66v247h256 256v-247.301c-73.418 40.564-168.417 66.301-256 66.301z" fill="#ffea80"/><g><path d="m512 264.699c-73.418 40.564-168.417 66.301-256 66.301v181h256z" fill="#fabe2c"/></g><g><path d="m271 211v30h-150v-150h30v120z" fill="#465a61"/></g><g><path d="m256 211h15v30h-15z" fill="#293939"/></g></g></svg>